<svg xmlns="http://www.w3.org/2000/svg" xmlns:xlink="http://www.w3.org/1999/xlink" width="30.388" height="29.958" viewBox="0 0 30.388 29.958"><defs><clipPath id="a"><rect width="30.388" height="29.958" fill="#FFFFFF"/></clipPath></defs><g clip-path="url(#a)"><path d="M15.434,29.957a15.477,15.477,0,0,1-8.095-2.5.948.948,0,0,0-.879-.142A10.308,10.308,0,0,1,1.2,27.35,1.429,1.429,0,0,1,.02,26.105a1.555,1.555,0,0,1,.752-1.588,9.93,9.93,0,0,0,1.374-1.175,1.121,1.121,0,0,0,.128-1.426,14.265,14.265,0,0,1-1.7-8.087A14.655,14.655,0,0,1,6.663,2.884,14.316,14.316,0,0,1,13.736.1a14.935,14.935,0,0,1,4.935,29.419c-1.059.237-2.157.3-3.237.441M3.46,25.338a5.668,5.668,0,0,0,2.881-.4,1.494,1.494,0,0,1,1.68.212,12.405,12.405,0,0,0,9.572,2.264A12.653,12.653,0,0,0,16.686,2.35,12.3,12.3,0,0,0,6.6,5.94a12.3,12.3,0,0,0-3.778,8.945,12.18,12.18,0,0,0,1.5,6.033A3.209,3.209,0,0,1,4.706,23.2,4.606,4.606,0,0,1,3.46,25.338" transform="translate(0 0.001)" fill="#FFFFFF"/><path d="M97.136,126.683a2.42,2.42,0,0,1,3.227.152,2.46,2.46,0,0,1,2.035-.662A1.832,1.832,0,0,1,104.15,128c.049,1.2.034,2.4.014,3.6a.99.99,0,0,1-.97,1.012.949.949,0,0,1-1.02-.9c-.067-.785-.039-1.577-.051-2.366a6.1,6.1,0,0,0-.026-.955c-.035-.2-.164-.485-.313-.532a.737.737,0,0,0-.648.156,1.448,1.448,0,0,0-.327.809c-.048.757-.025,1.519-.031,2.278a4.193,4.193,0,0,1-.013.455,1.064,1.064,0,0,1-1.09,1.052,1.026,1.026,0,0,1-.939-1.139c-.013-.972.008-1.945-.018-2.917-.018-.67-.328-.926-.827-.687a.875.875,0,0,0-.445.562c-.085.658-.09,1.328-.114,1.993-.014.379.013.761-.01,1.139a1.053,1.053,0,0,1-1,1.05,1.033,1.033,0,0,1-1.037-1.052c-.023-1.474-.019-2.948,0-4.422a.926.926,0,0,1,.61-.932.976.976,0,0,1,1.239.479" transform="translate(-85.881 -113.701)" fill="#FFFFFF"/><path d="M194.18,132.449a3.25,3.25,0,1,1,3.229-3.242,3.07,3.07,0,0,1-3.229,3.242m1.251-3.27a6.683,6.683,0,0,0-.247-.963.95.95,0,0,0-.922-.618.981.981,0,0,0-1,.576,2.4,2.4,0,0,0-.009,2.03.969.969,0,0,0,.987.593.958.958,0,0,0,.954-.639,8.033,8.033,0,0,0,.238-.979" transform="translate(-172.205 -113.535)" fill="#FFFFFF"/><path d="M68.024,129.3c0,.714.019,1.429-.006,2.143a1.042,1.042,0,0,1-.986,1.105c-.551.011-.949-.408-1.013-1.073-.013-.136-.01-.273-.01-.41,0-.957-.006-1.915,0-2.872a10.648,10.648,0,0,1,.057-1.318.921.921,0,0,1,.907-.808.964.964,0,0,1,.964.691,2.124,2.124,0,0,1,.085.581c.01.653,0,1.307,0,1.96Z" transform="translate(-59.5 -113.643)" fill="#FFFFFF"/><path d="M67.049,106.537a.954.954,0,0,1-1-.951,1.038,1.038,0,0,1,1.014-1.016,1,1,0,0,1,1,1.018.982.982,0,0,1-1.012.949" transform="translate(-59.536 -94.262)" fill="#FFFFFF"/></g></svg>